# xmcd
#
# Track frame offsets: 
#        187
#        12255
#        26825
#        42087
#        59132
#        74457
#        89657
#        103517
#        118410
#        136522
#
# Disc length: 2010 seconds
#
# Revision: 3
# Processed by: cddbd v1.5.1PL0 Copyright (c) Steve Scherf et al.
# Submitted via: ExactAudioCopy v0.95a5
#
DISCID=8e07d80a
DTITLE=John Schneider - Greatest Hits
DYEAR=1987
DGENRE=Country
TTITLE0=I've Been Around Enough To Know
TTITLE1=Country Girls
TTITLE2=It's A Short Walk From Heaven To Hell
TTITLE3=I'm Gonna Leave You Tomorrow
TTITLE4=What's A Memory Like You (Doing In A Love Like This)
TTITLE5=You're The Last Thing I Needed Tonight
TTITLE6=At The Sound Of The Tone
TTITLE7=Take The Long Way Home
TTITLE8=Love, You Ain't Seen The Last Of Me
TTITLE9=If It Was Anyone But You
EXTD=
EXTT0=
EXTT1=
EXTT2=
EXTT3=
EXTT4=
EXTT5=
EXTT6=
EXTT7=
EXTT8=
EXTT9=
PLAYORDER=
